<?xml version="1.0" encoding="UTF-8"?>
<svg xmlns="http://www.w3.org/2000/svg" xmlns:xlink="http://www.w3.org/1999/xlink" width="62pt" height="62pt" viewBox="0 0 62 62" version="1.1">
    <g id="surface1">
        <path style="stroke:none;fill-rule:evenodd;fill:rgb(100%,100%,100%);fill-opacity:1;" d="M 40.480469 62.382812 L 0.292969 18.4375 L 0 18.4375 C 0 14.234375 0.8125 10.765625 2.4375 8.03125 C 3.222656 6.699219 4.25 5.5 5.46875 4.496094 C 9.113281 1.5 14.730469 0 22.316406 0 L 62.304688 45.59375 C 62.316406 47.167969 62.179688 48.742188 61.890625 50.292969 C 61.566406 51.992188 61.042969 53.496094 60.328125 54.808594 C 59.546875 56.269531 58.4375 57.554688 57.082031 58.574219 C 54.007812 60.878906 49.164062 62.136719 42.550781 62.347656 C 41.859375 62.371094 41.167969 62.382812 40.480469 62.382812 Z M 62.304688 31.421875 L 32.179688 0 L 62.304688 0 Z M 0.148438 62.429688 L 0.148438 30.824219 L 29.152344 62.429688 Z M 0.148438 62.429688 "/>
    </g>
</svg>
