<?xml version="1.0" standalone="no"?>
<!DOCTYPE svg PUBLIC "-//W3C//DTD SVG 20010904//EN"
 "http://www.w3.org/TR/2001/REC-SVG-20010904/DTD/svg10.dtd">
<svg version="1.0" xmlns="http://www.w3.org/2000/svg"
 width="700.000000pt" height="700.000000pt" viewBox="0 0 700.000000 700.000000"
 preserveAspectRatio="xMidYMid meet">
<metadata>
Created by potrace 1.11, written by Peter Selinger 2001-2013
</metadata>
<g transform="translate(0.000000,700.000000) scale(0.100000,-0.100000)"
fill="#000000" stroke="none">
<path d="M2227 6994 c-1 -1 -51 -5 -112 -8 -60 -4 -139 -11 -175 -16 -36 -5
-92 -12 -125 -16 -33 -3 -69 -8 -80 -10 -11 -3 -36 -7 -55 -10 -66 -10 -265
-56 -350 -81 -450 -130 -813 -382 -1022 -708 -101 -156 -175 -330 -228 -535
-22 -82 -46 -210 -56 -297 -3 -32 -8 -67 -10 -78 -3 -11 -7 -86 -9 -167 -5
-136 -4 -148 12 -148 10 0 27 -11 38 -24 11 -13 58 -65 105 -116 47 -51 96
-105 110 -120 14 -15 66 -72 116 -126 49 -55 110 -121 135 -149 24 -27 58 -63
74 -80 17 -17 64 -69 105 -115 41 -46 86 -95 100 -110 116 -126 208 -226 220
-240 22 -25 171 -188 200 -219 14 -14 65 -71 115 -126 49 -55 92 -102 95 -105
5 -4 165 -179 235 -256 6 -6 53 -57 105 -114 52 -57 103 -112 113 -124 10 -12
37 -41 60 -66 23 -25 85 -92 137 -150 52 -58 102 -112 110 -120 8 -8 58 -62
110 -120 52 -57 104 -114 115 -126 21 -21 146 -158 250 -274 33 -36 64 -70 70
-76 5 -6 48 -53 95 -104 47 -51 90 -98 95 -104 49 -53 287 -312 348 -380 15
-17 40 -44 56 -61 62 -68 322 -352 361 -395 87 -96 214 -234 265 -290 33 -36
76 -82 95 -104 19 -21 48 -52 64 -70 107 -115 136 -147 176 -191 25 -28 90
-99 144 -158 l100 -108 435 4 c452 4 436 3 676 52 402 84 719 238 940 460 198
198 321 439 395 772 17 80 20 128 20 350 l0 258 -33 35 c-17 20 -52 58 -75 85
-24 28 -54 61 -66 75 -13 14 -56 63 -97 110 -40 47 -76 87 -79 90 -3 3 -34 39
-70 80 -36 41 -67 77 -70 80 -3 3 -147 167 -320 365 -173 198 -319 365 -325
371 -17 18 -66 75 -135 154 -36 41 -67 77 -70 80 -6 6 -126 143 -166 189 -16
19 -36 41 -44 50 -9 9 -45 50 -80 91 -36 41 -67 77 -70 80 -3 3 -34 39 -70 80
-36 41 -70 80 -75 86 -6 6 -35 39 -65 74 -30 34 -60 68 -65 74 -6 6 -46 52
-89 101 -43 50 -104 119 -136 155 -32 36 -156 178 -276 315 -120 138 -233 266
-250 285 -65 73 -131 148 -184 210 -30 35 -60 68 -65 74 -6 6 -60 67 -119 136
-142 163 -219 251 -281 320 -27 30 -75 85 -106 120 -249 286 -540 618 -574
654 -5 6 -39 45 -75 86 -36 41 -67 77 -70 80 -3 3 -68 76 -144 163 l-138 157
-145 -2 c-80 -2 -145 -4 -146 -4z"/>
<path d="M3656 6978 c10 -12 37 -40 59 -63 65 -68 406 -423 455 -475 25 -25
128 -133 230 -240 102 -106 207 -216 234 -244 27 -28 133 -139 236 -246 103
-107 209 -218 236 -246 27 -29 132 -138 234 -244 102 -106 205 -214 230 -240
129 -135 421 -439 460 -480 59 -61 425 -442 470 -490 19 -20 121 -126 226
-236 105 -109 210 -218 233 -242 l41 -44 0 1756 0 1756 -1682 0 -1681 0 19
-22z"/>
<path d="M19 3505 c0 -5 -2 -795 -2 -1754 -1 -1154 1 -1745 8 -1747 6 -2 732
-3 1615 -2 l1605 3 -66 70 c-36 39 -90 97 -120 129 -29 33 -61 67 -69 76 -8 9
-55 60 -105 115 -49 54 -99 108 -110 119 -11 12 -63 69 -115 126 -52 57 -104
114 -115 126 -11 11 -57 61 -102 110 -117 128 -125 138 -237 259 -56 60 -123
134 -151 165 -27 30 -59 64 -70 75 -11 11 -60 65 -110 120 -49 55 -97 107
-105 115 -8 8 -40 42 -70 75 -30 33 -102 111 -160 174 -58 63 -113 123 -123
135 -10 11 -60 66 -110 121 -51 54 -146 158 -211 230 -66 71 -165 179 -220
239 -137 148 -145 158 -190 207 -22 24 -90 98 -150 164 -61 66 -131 142 -156
169 -25 27 -73 79 -106 115 -34 36 -83 90 -110 120 -102 114 -143 156 -145
146z"/>
</g>
</svg>
